<?xml version="1.0" encoding="UTF-8" standalone="no"?>
<svg
   xmlns:dc="http://purl.org/dc/elements/1.1/"
   xmlns:cc="http://creativecommons.org/ns#"
   xmlns:rdf="http://www.w3.org/1999/02/22-rdf-syntax-ns#"
   xmlns:svg="http://www.w3.org/2000/svg"
   xmlns="http://www.w3.org/2000/svg"
   xmlns:sodipodi="http://sodipodi.sourceforge.net/DTD/sodipodi-0.dtd"
   xmlns:inkscape="http://www.inkscape.org/namespaces/inkscape"
   width="24"
   height="24"
   viewBox="0 0 24 24"
   version="1.1"
   id="svg848"
   inkscape:version="1.0.1 (3bc2e813f5, 2020-09-07)"
   sodipodi:docname="rustlings.svg">
  <defs
     id="defs842" />
  <sodipodi:namedview
     id="base"
     pagecolor="#ffffff"
     bordercolor="#666666"
     borderopacity="1.0"
     inkscape:pageopacity="0.0"
     inkscape:pageshadow="2"
     inkscape:zoom="16.744289"
     inkscape:cx="11.92729"
     inkscape:cy="21.735918"
     inkscape:document-units="px"
     inkscape:current-layer="layer1"
     inkscape:document-rotation="0"
     showgrid="false"
     units="px"
     showguides="true"
     inkscape:guide-bbox="true"
     inkscape:window-width="1267"
     inkscape:window-height="1160"
     inkscape:window-x="78"
     inkscape:window-y="0"
     inkscape:window-maximized="0">
    <sodipodi:guide
       position="24,24"
       orientation="-1,0"
       id="guide1413"
       inkscape:label=""
       inkscape:locked="false"
       inkscape:color="rgb(0,0,255)" />
    <sodipodi:guide
       position="24,24"
       orientation="0,1"
       id="guide1415"
       inkscape:label=""
       inkscape:locked="false"
       inkscape:color="rgb(0,0,255)" />
    <sodipodi:guide
       position="12,0"
       orientation="0,1"
       id="guide1417"
       inkscape:label=""
       inkscape:locked="false"
       inkscape:color="rgb(0,0,255)" />
    <sodipodi:guide
       position="0,24"
       orientation="-1,0"
       id="guide1419"
       inkscape:label=""
       inkscape:locked="false"
       inkscape:color="rgb(0,0,255)" />
    <sodipodi:guide
       position="12,12"
       orientation="-1,0"
       id="guide1421"
       inkscape:label=""
       inkscape:locked="false"
       inkscape:color="rgb(0,0,255)" />
  </sodipodi:namedview>
  <metadata
     id="metadata845">
    <rdf:RDF>
      <cc:Work
         rdf:about="">
        <dc:format>image/svg+xml</dc:format>
        <dc:type
           rdf:resource="http://purl.org/dc/dcmitype/StillImage" />
        <dc:title />
      </cc:Work>
    </rdf:RDF>
  </metadata>
  <g
     inkscape:label="Layer 1"
     inkscape:groupmode="layer"
     id="layer1">
    <path
       id="path1425-5"
       style="fill:#ff0000;fill-opacity:1;stroke:none;stroke-width:1.00157;stroke-linecap:butt;stroke-linejoin:miter;stroke-miterlimit:4;stroke-dasharray:none;stroke-opacity:1"
       d="M 5.828125 1.546875 C 2.5764358 1.3382998 0 3.7822 0 7.5976562 C 0 15.351034 5.996622 20.339791 12 22.626953 C 18.003378 20.339791 24 15.351034 24 7.5976562 C 24 1.4929263 17.405405 -1.1010879 12 5.0644531 C 9.9729731 2.7523753 7.7791385 1.6720201 5.828125 1.546875 z M 6.4902344 2.828125 A -0.750075 0.750075 0 0 1 7.1777344 3.4355469 L 7.3691406 4.4375 L 8.5488281 4.3242188 A -0.750075 0.750075 0 0 1 9.3710938 5.0703125 C 9.3710938 6.2383105 8.5291352 7.2600679 7.375 7.4238281 C 7.0677517 7.4674236 6.8119454 7.2995393 6.5273438 7.2226562 C 6.0953099 7.5013843 5.7184481 8.083066 5.734375 8.6054688 C 5.7491935 9.0915156 6.0478013 9.5280823 6.9179688 9.8378906 C 7.1993108 9.5105448 7.4580754 9.1640167 7.8300781 8.9121094 C 8.9472753 8.1555822 10.424731 7.7187499 12.042969 7.71875 C 13.661207 7.71875 15.138662 8.1555822 16.255859 8.9121094 C 16.674116 9.1953381 16.980206 9.5757043 17.28125 9.953125 C 18.162385 9.6432997 18.459718 9.2032638 18.474609 8.7148438 C 18.490537 8.192424 18.11174 7.6107465 17.679688 7.3320312 C 17.395306 7.4087491 17.139008 7.5767599 16.832031 7.5332031 C 15.677896 7.3694426 14.835937 6.347685 14.835938 5.1796875 A -0.750075 0.750075 0 0 1 15.966797 4.5332031 L 17.134766 5.2207031 L 17.019531 3.7460938 A -0.750075 0.750075 0 0 1 18.074219 3.0019531 C 19.138135 3.4786136 19.680204 4.68041 19.378906 5.8085938 C 19.304224 6.0882337 19.066912 6.2506013 18.90625 6.4765625 C 19.542551 7.0744297 20.000335 7.853869 19.972656 8.7617188 C 19.94168 9.7777432 19.151 10.708475 17.902344 11.238281 C 17.986268 11.528081 18.15625 11.789203 18.15625 12.101562 C 18.15625 12.575882 17.955638 12.993146 17.769531 13.412109 C 18.432085 13.78475 19.039302 14.189835 19.341797 14.556641 C 19.723049 15.018946 19.882812 15.455078 19.882812 15.455078 A -0.75 0.75 0 0 1 19.412109 16.40625 A -0.75 0.75 0 0 1 18.460938 15.935547 C 18.460938 15.935547 18.428684 15.804594 18.185547 15.509766 C 17.971282 15.249948 17.526868 14.91379 16.925781 14.609375 C 16.87397 14.661233 16.827946 14.715831 16.773438 14.765625 C 17.376086 15.170476 17.831074 15.62987 18.048828 16.058594 C 18.340501 16.632853 18.359375 17.166016 18.359375 17.166016 A -0.75 0.75 0 0 1 17.623047 17.929688 A -0.75 0.75 0 0 1 16.859375 17.193359 C 16.859375 17.193359 16.866442 17.0406 16.712891 16.738281 C 16.55934 16.435962 16.267447 16.048151 15.552734 15.734375 A -0.75 0.75 0 0 1 15.433594 15.667969 C 15.398347 15.685124 15.361903 15.700183 15.326172 15.716797 C 16.592458 16.84591 16.730469 18.523438 16.730469 18.523438 A -0.75 0.75 0 0 1 16.011719 19.304688 A -0.75 0.75 0 0 1 15.230469 18.585938 C 15.230469 18.585938 15.152882 17.017338 13.863281 16.451172 A -0.75 0.75 0 0 1 13.609375 16.269531 C 13.098261 16.366682 12.595678 16.482422 12.042969 16.482422 C 11.475571 16.482422 10.956911 16.365925 10.433594 16.263672 A -0.75 0.75 0 0 1 10.337891 16.314453 C 9.0980197 16.858786 9.2070313 18.482422 9.2070312 18.482422 A -0.75 0.75 0 0 1 8.5136719 19.285156 A -0.75 0.75 0 0 1 7.7109375 18.591797 C 7.7109375 18.591797 7.6462504 16.897635 8.7480469 15.712891 C 8.7004427 15.690657 8.6522064 15.669679 8.6054688 15.646484 C 7.42127 16.227733 7.5175781 17.642578 7.5175781 17.642578 A -0.75 0.75 0 0 1 6.8261719 18.447266 A -0.75 0.75 0 0 1 6.0214844 17.755859 C 6.0214844 17.755859 5.9881959 15.92465 7.3261719 14.777344 C 7.261408 14.718618 7.2055146 14.655365 7.1445312 14.59375 C 6.737967 14.849766 6.3571967 15.120853 6.234375 15.332031 C 6.0709536 15.613016 6.0761719 15.728516 6.0761719 15.728516 A -0.75 0.75 0 0 1 5.2773438 16.425781 A -0.75 0.75 0 0 1 4.5800781 15.626953 C 4.5800781 15.626953 4.6258367 15.113996 4.9375 14.578125 C 5.1635581 14.189443 5.7484512 13.794018 6.3183594 13.416016 C 6.1311487 12.995939 5.9296877 12.577374 5.9296875 12.101562 C 5.9296875 11.733227 6.1153143 11.420255 6.2304688 11.083984 C 5.0370231 10.544338 4.264631 9.6427856 4.234375 8.6503906 C 4.2066897 7.7423157 4.6661462 6.9650737 5.3027344 6.3671875 C 5.1416801 6.1409541 4.9029309 5.9793237 4.828125 5.6992188 C 4.526828 4.5710355 5.070849 3.3692384 6.1347656 2.8925781 A -0.750075 0.750075 0 0 1 6.4902344 2.828125 z M 12.042969 9.21875 C 10.699206 9.21875 9.4938127 9.5963864 8.6699219 10.154297 C 7.846031 10.712207 7.4296874 11.397965 7.4296875 12.101562 C 7.4296877 12.805161 7.846031 13.490918 8.6699219 14.048828 C 9.4938127 14.606738 10.699206 14.982422 12.042969 14.982422 C 13.386731 14.982422 14.590173 14.606738 15.414062 14.048828 C 16.237954 13.490918 16.65625 12.80516 16.65625 12.101562 C 16.65625 11.397965 16.237954 10.712207 15.414062 10.154297 C 14.590173 9.5963864 13.386731 9.21875 12.042969 9.21875 z " />
  </g>
</svg>
